<mxfile host="app.diagrams.net" modified="2024-04-06T16:37:36.491Z" agent="Mozilla/5.0 (Windows NT 10.0; Win64; x64) AppleWebKit/537.36 (KHTML, like Gecko) Chrome/123.0.0.0 Safari/537.36" version="24.2.1" etag="JUA--dE3CKJG6yjdIJzM" type="github">
  <diagram name="PÃ¡gina-1" id="L741AWw9REg5Ir0KPYSh">
    <mxGraphModel>
      <root>
        <mxCell id="0" />
        <mxCell id="1" parent="0" />
      </root>
    </mxGraphModel>
  </diagram>
</mxfile>
